<svg width="184" height="151" viewBox="0 0 184 151" fill="none" xmlns="http://www.w3.org/2000/svg">
<path d="M87.0435 28.0596V87.0435H56.9755V51.3316L21.2636 87.0435L0 65.7837L35.708 30.0719H0V0H58.9839C74.483 0 87.0435 12.5643 87.0435 28.0596Z" fill="black"/>
<path d="M94.9565 58.9852V0H125.023V35.7102L160.737 0L182 21.2627L146.294 56.9729H182V87.0435H123.019C107.524 87.0435 94.9604 74.4836 94.9604 58.9852H94.9565Z" fill="black"/>
<path d="M17.245 136.55C15.1917 136.55 13.45 135.982 12.02 134.845C10.6267 133.672 9.50833 131.893 8.665 129.51L2.505 112.075C2.43167 111.892 2.395 111.617 2.395 111.25C2.395 110.48 2.70667 109.838 3.33 109.325C3.95333 108.812 4.77833 108.555 5.805 108.555C6.42833 108.555 6.96 108.702 7.4 108.995C7.87667 109.288 8.20667 109.692 8.39 110.205L14.825 128.52C15.1917 129.657 15.5583 130.463 15.925 130.94C16.2917 131.38 16.7317 131.6 17.245 131.6C17.7583 131.6 18.1983 131.38 18.565 130.94C18.9317 130.463 19.2983 129.657 19.665 128.52L26.1 110.205C26.2833 109.692 26.595 109.288 27.035 108.995C27.475 108.702 28.025 108.555 28.685 108.555C29.675 108.555 30.5 108.812 31.16 109.325C31.82 109.838 32.15 110.48 32.15 111.25C32.15 111.507 32.095 111.782 31.985 112.075L25.77 129.51C24.9633 131.893 23.845 133.672 22.415 134.845C21.0217 135.982 19.2983 136.55 17.245 136.55ZM50.4104 136.55C47.2204 136.55 44.4154 135.963 41.9954 134.79C39.5754 133.58 37.7054 131.912 36.3854 129.785C35.1021 127.658 34.4604 125.238 34.4604 122.525C34.4604 119.812 35.1021 117.392 36.3854 115.265C37.7054 113.138 39.5754 111.488 41.9954 110.315C44.4154 109.105 47.2204 108.5 50.4104 108.5C53.6004 108.5 56.4054 109.105 58.8254 110.315C61.2454 111.488 63.0971 113.138 64.3804 115.265C65.7004 117.392 66.3604 119.812 66.3604 122.525C66.3604 125.238 65.7004 127.658 64.3804 129.785C63.0971 131.912 61.2454 133.58 58.8254 134.79C56.4054 135.963 53.6004 136.55 50.4104 136.55ZM50.4104 131.6C53.3804 131.6 55.7454 130.793 57.5054 129.18C59.2654 127.567 60.1454 125.348 60.1454 122.525C60.1454 119.702 59.2654 117.483 57.5054 115.87C55.7454 114.257 53.3804 113.45 50.4104 113.45C47.4038 113.45 45.0204 114.257 43.2604 115.87C41.5371 117.483 40.6754 119.702 40.6754 122.525C40.6754 125.348 41.5371 127.567 43.2604 129.18C45.0204 130.793 47.4038 131.6 50.4104 131.6ZM75.6666 136.55C74.7133 136.55 73.9616 136.293 73.4116 135.78C72.8616 135.267 72.5866 134.552 72.5866 133.635V97.17C72.5866 96.2533 72.8616 95.5383 73.4116 95.025C73.9616 94.5117 74.7133 94.255 75.6666 94.255C76.6199 94.255 77.3716 94.5117 77.9216 95.025C78.4716 95.5383 78.7466 96.2533 78.7466 97.17V133.635C78.7466 134.515 78.4533 135.23 77.8666 135.78C77.3166 136.293 76.5833 136.55 75.6666 136.55ZM100.294 136.55C97.1404 136.55 94.3904 136 92.0437 134.9C89.7337 133.763 87.9554 132.15 86.7087 130.06C85.4987 127.97 84.8937 125.495 84.8937 122.635C84.8937 118.198 86.2137 114.733 88.8537 112.24C91.4937 109.747 95.1604 108.5 99.8537 108.5C102.75 108.5 105.317 108.958 107.554 109.875C109.79 110.792 111.532 112.075 112.779 113.725C114.025 115.338 114.649 117.19 114.649 119.28C114.649 120.967 114.135 122.268 113.109 123.185C112.082 124.102 110.634 124.56 108.764 124.56H90.9437C90.9437 126.833 91.7504 128.593 93.3637 129.84C94.977 131.087 97.287 131.71 100.294 131.71C102.017 131.71 103.539 131.527 104.859 131.16C106.179 130.793 107.407 130.207 108.544 129.4C109.607 128.703 110.414 128.355 110.964 128.355C111.44 128.355 111.935 128.612 112.449 129.125C113.035 129.675 113.329 130.28 113.329 130.94C113.329 131.637 113.017 132.223 112.394 132.7C109.314 135.267 105.28 136.55 100.294 136.55ZM106.894 120.105C107.517 120.105 107.975 119.977 108.269 119.72C108.562 119.463 108.709 119.023 108.709 118.4C108.709 116.897 107.902 115.687 106.289 114.77C104.675 113.817 102.53 113.34 99.8537 113.34C97.1404 113.34 94.9954 113.963 93.4187 115.21C91.842 116.42 91.0537 118.052 91.0537 120.105H106.894ZM132.401 136.55C130.348 136.55 128.606 135.982 127.176 134.845C125.783 133.672 124.665 131.893 123.821 129.51L117.661 112.075C117.588 111.892 117.551 111.617 117.551 111.25C117.551 110.48 117.863 109.838 118.486 109.325C119.11 108.812 119.935 108.555 120.961 108.555C121.585 108.555 122.116 108.702 122.556 108.995C123.033 109.288 123.363 109.692 123.546 110.205L129.981 128.52C130.348 129.657 130.715 130.463 131.081 130.94C131.448 131.38 131.888 131.6 132.401 131.6C132.915 131.6 133.355 131.38 133.721 130.94C134.088 130.463 134.455 129.657 134.821 128.52L141.256 110.205C141.44 109.692 141.751 109.288 142.191 108.995C142.631 108.702 143.181 108.555 143.841 108.555C144.831 108.555 145.656 108.812 146.316 109.325C146.976 109.838 147.306 110.48 147.306 111.25C147.306 111.507 147.251 111.782 147.141 112.075L140.926 129.51C140.12 131.893 139.001 133.672 137.571 134.845C136.178 135.982 134.455 136.55 132.401 136.55ZM163.925 136.55C160.222 136.55 157.325 135.487 155.235 133.36C153.145 131.197 152.1 128.208 152.1 124.395V111.415C152.1 110.498 152.375 109.783 152.925 109.27C153.512 108.757 154.282 108.5 155.235 108.5C156.189 108.5 156.922 108.757 157.435 109.27C157.985 109.783 158.26 110.498 158.26 111.415V124.395C158.26 126.668 158.865 128.447 160.075 129.73C161.285 130.977 162.972 131.6 165.135 131.6C167.849 131.6 170.012 130.738 171.625 129.015C173.239 127.255 174.045 124.89 174.045 121.92V111.415C174.045 110.498 174.32 109.783 174.87 109.27C175.42 108.757 176.172 108.5 177.125 108.5C178.079 108.5 178.83 108.757 179.38 109.27C179.93 109.783 180.205 110.498 180.205 111.415V133.635C180.205 134.552 179.949 135.267 179.435 135.78C178.922 136.293 178.189 136.55 177.235 136.55C176.282 136.55 175.53 136.293 174.98 135.78C174.467 135.23 174.21 134.515 174.21 133.635V131.49C171.534 134.863 168.105 136.55 163.925 136.55Z" fill="black"/>
</svg>
