<svg width="281" height="150" viewBox="0 0 281 150" fill="none" xmlns="http://www.w3.org/2000/svg">
<g clip-path="url(#clip0_1450_62)">
<path d="M38.9189 46.6361C39.7031 46.6361 40.385 46.9286 40.9549 47.5085C41.5248 48.0934 41.8122 48.7823 41.8122 49.5803V60.5987C41.8122 61.4017 41.5248 62.0907 40.9549 62.6706C40.3801 63.2555 39.7031 63.5429 38.9189 63.5429H29.1624C22.5866 63.5429 19.2987 66.8886 19.2987 73.5799V100.415C19.2987 101.218 19.0113 101.907 18.4414 102.487C17.8666 103.071 17.1896 103.359 16.4053 103.359H2.89334C2.10425 103.359 1.42719 103.071 0.857287 102.487C0.282515 101.907 0 101.213 0 100.415V49.5754C0 48.7774 0.282515 48.0835 0.857287 47.5035C1.42719 46.9236 2.10912 46.6312 2.89334 46.6312H15.3289C16.1131 46.6312 16.795 46.9236 17.3649 47.5035C17.9348 48.0884 18.2222 48.7774 18.2222 49.5754V52.0834C19.8637 50.4824 21.8511 49.1739 24.1745 48.1578C26.4979 47.1417 29.2646 46.6312 32.4843 46.6312H38.9189V46.6361Z" fill="#4F56D3"/>
<path d="M40.3412 87.2204C40.3412 82.4224 42.1434 78.4572 45.7577 75.3296C49.3671 72.202 55.2463 69.9121 63.3954 68.4549L75.9381 66.274C75.9381 64.5293 75.4704 63.0919 74.545 61.9668C73.6146 60.8416 72.0072 60.2766 69.7227 60.2766C68.0763 60.2766 66.8099 60.5145 65.9185 60.9854C65.0223 61.4612 64.3647 61.8775 63.936 62.2394C63.2931 62.8242 62.6842 63.1861 62.1143 63.3298C61.5395 63.4785 60.8625 63.5479 60.0783 63.5479H46.464C45.7479 63.5479 45.1586 63.3298 44.6958 62.8936C44.2282 62.4575 44.0334 61.8775 44.1064 61.1489C44.2477 59.4786 44.9637 57.7289 46.2496 55.9148C47.5356 54.0958 49.3037 52.4254 51.5541 50.8988C53.8045 49.3722 56.4835 48.0983 59.596 47.0822C62.7037 46.0662 66.0841 45.5556 69.7276 45.5556C74.0871 45.5556 77.8767 46.1009 81.0915 47.1913C84.3063 48.2817 86.9707 49.7935 89.0799 51.7166C91.189 53.6447 92.7428 55.9346 93.7414 58.5914C94.7399 61.2481 95.2416 64.1724 95.2416 67.3743V100.43C95.2416 101.233 94.9542 101.921 94.3843 102.501C93.8096 103.086 93.1325 103.374 92.3483 103.374H78.8411C78.052 103.374 77.375 103.086 76.8051 102.501C76.2303 101.921 75.9478 101.228 75.9478 100.43V97.3763C74.2332 99.5572 72.1046 101.287 69.5669 102.556C67.0291 103.83 63.6876 104.464 59.5425 104.464C56.4689 104.464 53.7363 104.028 51.3398 103.156C48.9433 102.283 46.9462 101.084 45.3339 99.5572C43.7265 98.0306 42.4941 96.2115 41.6369 94.105C40.7796 91.9985 40.3509 89.7036 40.3509 87.2303L40.3412 87.2204ZM64.7836 89.7284C66.3569 89.7284 67.8182 89.4558 69.1772 88.9106C70.5362 88.3653 71.7149 87.6218 72.7135 86.6751C73.712 85.7284 74.5011 84.6231 75.071 83.3493C75.6409 82.0804 75.9283 80.7124 75.9283 79.2602L66.0647 80.7868C64.1358 81.1536 62.5819 81.7682 61.4032 82.6405C60.2244 83.5129 59.635 84.643 59.635 86.0209C59.635 87.3988 60.0783 88.3653 60.9745 88.9106C61.8659 89.4558 63.1372 89.7284 64.7787 89.7284H64.7836Z" fill="#4F56D3"/>
<path d="M132.12 104.454C130.045 104.454 128.208 104.236 126.596 103.8C124.988 103.364 123.61 102.819 122.47 102.164C121.326 101.51 120.381 100.801 119.63 100.038C118.88 99.2747 118.359 98.5659 118.077 97.9116L113.147 121.148C113.001 121.946 112.592 122.64 111.915 123.22C111.233 123.8 110.502 124.092 109.718 124.092H96.2109C95.4267 124.092 94.7984 123.8 94.3356 123.22C93.8729 122.635 93.7121 121.946 93.8534 121.148L108.861 49.5853C109.002 48.7873 109.411 48.0934 110.093 47.5135C110.77 46.9335 111.506 46.6411 112.29 46.6411H125.261C126.045 46.6411 126.674 46.9335 127.137 47.5135C127.599 48.0983 127.76 48.7873 127.619 49.5853L127.083 52.0933C127.726 51.3696 128.403 50.6212 129.119 49.8579C129.83 49.0946 130.726 48.3858 131.798 47.7315C132.87 47.0773 134.229 46.5519 135.87 46.1504C137.512 45.7539 139.66 45.5507 142.305 45.5507C144.95 45.5507 147.609 46.081 150.293 47.1318C152.972 48.1875 155.295 49.7687 157.263 51.8752C159.226 53.9867 160.693 56.6385 161.657 59.8404C162.621 63.0423 162.748 66.7845 162.032 71.0769C161.959 71.6618 161.852 72.3309 161.711 73.0942C161.564 73.8575 161.404 74.6605 161.228 75.4932C161.048 76.3308 160.868 77.1487 160.693 77.9467C160.512 78.7496 160.352 79.4039 160.21 79.9095C158.067 88.4942 154.74 94.7295 150.239 98.6204C145.739 102.511 139.694 104.454 132.12 104.454ZM141.34 78.0557C141.696 76.9653 141.964 75.9492 142.144 75.0025C142.319 74.0558 142.48 73.0397 142.626 71.9492C142.767 70.6407 142.767 69.4214 142.626 68.2963C142.48 67.1711 142.124 66.1699 141.555 65.2975C140.98 64.4252 140.161 63.7362 139.09 63.2257C138.018 62.7152 136.659 62.4624 135.018 62.4624C133.376 62.4624 132.032 62.7201 130.785 63.2257C129.533 63.7362 128.442 64.4103 127.517 65.243C126.586 66.0807 125.802 67.0076 125.159 68.0237C124.516 69.0447 124.014 70.0955 123.659 71.1859C123.23 72.2764 122.87 73.5502 122.587 75.0025C122.3 76.4597 122.119 77.7286 122.051 78.819C121.978 79.9095 122.032 80.9652 122.212 81.9813C122.387 83.0023 122.782 83.9292 123.391 84.7619C124 85.5996 124.818 86.2737 125.856 86.7792C126.893 87.2898 128.194 87.5425 129.767 87.5425C133.128 87.5425 135.7 86.5958 137.487 84.7074C139.275 82.8189 140.561 80.5984 141.345 78.0507L141.34 78.0557Z" fill="#4F56D3"/>
<path d="M190.152 45.5457C192.222 45.5457 194.063 45.7638 195.671 46.2C197.278 46.6362 198.657 47.1814 199.796 47.8356C200.941 48.4899 201.867 49.1987 202.583 49.962C203.294 50.7253 203.834 51.4341 204.19 52.0884L209.119 28.8521C209.261 28.0541 209.67 27.3601 210.352 26.7802C211.029 26.2003 211.764 25.9079 212.549 25.9079H226.056C226.84 25.9079 227.468 26.2003 227.931 26.7802C228.394 27.3651 228.555 28.0541 228.413 28.8521L213.406 100.415C213.26 101.218 212.851 101.907 212.174 102.487C211.492 103.071 210.761 103.359 209.977 103.359H197.005C196.216 103.359 195.593 103.071 195.13 102.487C194.662 101.907 194.502 101.213 194.648 100.415L195.184 97.9067C194.541 98.6353 193.859 99.3788 193.148 100.142C192.432 100.905 191.54 101.614 190.469 102.268C189.397 102.923 188.038 103.448 186.397 103.85C184.75 104.246 182.607 104.449 179.962 104.449C177.317 104.449 174.565 103.919 171.92 102.868C169.275 101.812 166.971 100.231 165.003 98.1248C163.035 96.0182 161.574 93.3615 160.61 90.1596C159.645 86.9577 159.519 83.2155 160.235 78.9231C160.303 78.4175 160.41 77.7583 160.556 76.9603C160.697 76.1623 160.858 75.3445 161.038 74.5068C161.214 73.6692 161.394 72.8712 161.574 72.1078C161.75 71.3445 161.91 70.6705 162.056 70.0905C164.2 61.5108 167.522 55.2705 172.027 51.3796C176.528 47.4887 182.568 45.5408 190.147 45.5408L190.152 45.5457ZM180.931 71.9443C180.571 73.0347 180.303 74.0558 180.128 74.9975C179.947 75.9442 179.787 76.9603 179.645 78.0508C179.499 79.3593 179.499 80.5786 179.645 81.7037C179.787 82.8338 180.142 83.8301 180.717 84.7024C181.287 85.5748 182.11 86.2687 183.182 86.7743C184.253 87.2848 185.612 87.5376 187.254 87.5376C188.895 87.5376 190.24 87.2848 191.487 86.7743C192.738 86.2638 193.825 85.5946 194.755 84.757C195.685 83.9193 196.47 82.9924 197.113 81.9763C197.756 80.9602 198.257 79.9045 198.613 78.8141C199.041 77.7236 199.397 76.4498 199.684 74.9975C199.967 73.5452 200.147 72.2714 200.22 71.181C200.288 70.0905 200.22 69.0348 200.006 68.0187C199.792 67.0026 199.397 66.0757 198.827 65.2381C198.252 64.4004 197.449 63.7313 196.416 63.2208C195.379 62.7102 194.073 62.4575 192.505 62.4575C189.144 62.4575 186.572 63.4042 184.784 65.2926C182.997 67.186 181.711 69.4016 180.926 71.9492L180.931 71.9443Z" fill="#4F56D3"/>
<path d="M280.893 70.8538C280.961 71.9443 281 73.347 281 75.052C281 76.7571 280.961 78.1598 280.893 79.2502C280.747 82.7396 279.962 86.0159 278.535 89.0692C277.103 92.1224 275.14 94.7989 272.641 97.0889C270.138 99.3788 267.123 101.178 263.581 102.487C260.045 103.795 256.095 104.449 251.735 104.449C247.376 104.449 243.425 103.795 239.889 102.487C236.353 101.178 233.333 99.3788 230.829 97.0889C228.326 94.7989 226.363 92.1273 224.931 89.0692C223.498 86.0159 222.714 82.7396 222.573 79.2502C222.5 78.1598 222.466 76.7621 222.466 75.052C222.466 73.342 222.5 71.9443 222.573 70.8538C222.641 67.3644 223.396 64.0882 224.823 61.0349C226.251 57.9817 228.238 55.3052 230.776 53.0152C233.313 50.7253 236.353 48.9063 239.889 47.563C243.425 46.2198 247.376 45.5457 251.735 45.5457C256.095 45.5457 260.045 46.2198 263.581 47.563C267.118 48.9112 270.157 50.7253 272.695 53.0152C275.233 55.3052 277.196 57.9767 278.594 61.0349C279.987 64.0882 280.756 67.3644 280.898 70.8538H280.893ZM241.867 78.71C242.081 81.4757 243.065 83.6368 244.814 85.203C246.562 86.7693 248.871 87.5475 251.73 87.5475C254.59 87.5475 256.894 86.7644 258.647 85.203C260.396 83.6417 261.38 81.4757 261.594 78.71C261.735 77.6195 261.808 76.3854 261.808 75.0025C261.808 73.6196 261.735 72.3854 261.594 71.295C261.38 68.5292 260.396 66.3682 258.647 64.8019C256.894 63.2406 254.59 62.4575 251.73 62.4575C248.871 62.4575 246.567 63.2406 244.814 64.8019C243.06 66.3682 242.081 68.5292 241.867 71.295C241.721 72.3854 241.652 73.6246 241.652 75.0025C241.652 76.3804 241.721 77.6195 241.867 78.71Z" fill="#4F56D3"/>
<path d="M93.8485 121.148H113.157L111.472 129.361L107.716 147.056C107.57 147.854 107.161 148.548 106.484 149.128C105.802 149.708 105.071 150 104.287 150H90.7798C89.9956 150 89.3673 149.708 88.9045 149.128C88.4418 148.543 88.281 147.854 88.4223 147.056L93.4832 122.927L93.8583 121.148H93.8485Z" fill="url(#paint0_linear_1450_62)"/>
<path d="M228.433 28.8521H209.124L210.81 20.6391L214.565 2.94419C214.711 2.14618 215.12 1.45227 215.798 0.872352C216.479 0.292436 217.21 0 217.994 0H231.501C232.286 0 232.914 0.292436 233.377 0.872352C233.84 1.45722 234 2.14618 233.859 2.94419L228.798 27.0727L228.423 28.8521H228.433Z" fill="url(#paint1_linear_1450_62)"/>
</g>
<defs>
<linearGradient id="paint0_linear_1450_62" x1="100.76" y1="121.148" x2="100.76" y2="150" gradientUnits="userSpaceOnUse">
<stop offset="0.14" stop-color="#4F56D3"/>
<stop offset="0.31" stop-color="#4F56D3" stop-opacity="0.5776"/>
<stop offset="0.55" stop-color="#4F56D3" stop-opacity="0.1936"/>
<stop offset="0.76" stop-color="#4F56D3" stop-opacity="0.04"/>
<stop offset="0.91" stop-color="#4F56D3" stop-opacity="0.01"/>
<stop offset="1" stop-color="#4F56D3" stop-opacity="0"/>
</linearGradient>
<linearGradient id="paint1_linear_1450_62" x1="221.521" y1="28.8521" x2="221.521" y2="0" gradientUnits="userSpaceOnUse">
<stop offset="0.14" stop-color="#4F56D3"/>
<stop offset="0.31" stop-color="#4F56D3" stop-opacity="0.5776"/>
<stop offset="0.55" stop-color="#4F56D3" stop-opacity="0.1936"/>
<stop offset="0.76" stop-color="#4F56D3" stop-opacity="0.04"/>
<stop offset="0.91" stop-color="#4F56D3" stop-opacity="0.01"/>
<stop offset="1" stop-color="#4F56D3" stop-opacity="0"/>
</linearGradient>
<clipPath id="clip0_1450_62">
<rect width="281" height="150" fill="white"/>
</clipPath>
</defs>
</svg>
