<?xml version="1.0" standalone="no"?>
<!DOCTYPE svg PUBLIC "-//W3C//DTD SVG 20010904//EN"
 "http://www.w3.org/TR/2001/REC-SVG-20010904/DTD/svg10.dtd">
<svg version="1.0" xmlns="http://www.w3.org/2000/svg"
 width="368.000000pt" height="368.000000pt" viewBox="0 0 368.000000 368.000000"
 preserveAspectRatio="xMidYMid meet">

<g transform="translate(0.000000,368.000000) scale(0.100000,-0.100000)"
fill="#000000" stroke="none">
<path d="M160 2960 l0 -560 560 0 560 0 0 560 0 560 -560 0 -560 0 0 -560z
m960 0 l0 -400 -400 0 -400 0 0 400 0 400 400 0 400 0 0 -400z"/>
<path d="M480 2960 l0 -240 240 0 240 0 0 240 0 240 -240 0 -240 0 0 -240z"/>
<path d="M1440 3360 l0 -160 80 0 80 0 0 80 0 80 80 0 80 0 0 -80 0 -80 80 0
80 0 0 -80 0 -80 -240 0 -240 0 0 -80 0 -80 160 0 160 0 0 -80 0 -80 -80 0
-80 0 0 -80 0 -80 -80 0 -80 0 0 -160 0 -160 -240 0 -240 0 0 -80 0 -80 -80 0
-80 0 0 80 0 80 -160 0 -160 0 0 -80 0 -80 -80 0 -80 0 0 80 0 80 -80 0 -80 0
0 -80 0 -80 80 0 80 0 0 -240 0 -240 -80 0 -80 0 0 -80 0 -80 80 0 80 0 0 80
0 80 80 0 80 0 0 -80 0 -80 240 0 240 0 0 80 0 80 80 0 80 0 0 -80 0 -80 160
0 160 0 0 -240 0 -240 80 0 80 0 0 -80 0 -80 -80 0 -80 0 0 -160 0 -160 80 0
80 0 0 -80 0 -80 -80 0 -80 0 0 -80 0 -80 160 0 160 0 0 80 0 80 80 0 80 0 0
-80 0 -80 320 0 320 0 0 80 0 80 80 0 80 0 0 -80 0 -80 240 0 240 0 0 80 0 80
-160 0 -160 0 0 80 0 80 160 0 160 0 0 80 0 80 80 0 80 0 0 320 0 320 -240 0
-240 0 0 80 0 80 80 0 80 0 0 240 0 240 80 0 80 0 0 -80 0 -80 80 0 80 0 0
-80 0 -80 -80 0 -80 0 0 -80 0 -80 80 0 80 0 0 80 0 80 80 0 80 0 0 160 0 160
-80 0 -80 0 0 80 0 80 80 0 80 0 0 80 0 80 -160 0 -160 0 0 -80 0 -80 -80 0
-80 0 0 80 0 80 -80 0 -80 0 0 -80 0 -80 -80 0 -80 0 0 -80 0 -80 -80 0 -80 0
0 -80 0 -80 80 0 80 0 0 80 0 80 80 0 80 0 0 -240 0 -240 -80 0 -80 0 0 80 0
80 -160 0 -160 0 0 -80 0 -80 160 0 160 0 0 -80 0 -80 -80 0 -80 0 0 -160 0
-160 80 0 80 0 0 80 0 80 80 0 80 0 0 -160 0 -160 160 0 160 0 0 -80 0 -80
-160 0 -160 0 0 -80 0 -80 -80 0 -80 0 0 80 0 80 -80 0 -80 0 0 80 0 80 -80 0
-80 0 0 -80 0 -80 80 0 80 0 0 -80 0 -80 -160 0 -160 0 0 240 0 240 80 0 80 0
0 80 0 80 -160 0 -160 0 0 80 0 80 80 0 80 0 0 240 0 240 -80 0 -80 0 0 80 0
80 80 0 80 0 0 400 0 400 -80 0 -80 0 0 80 0 80 -80 0 -80 0 0 80 0 80 160 0
160 0 0 240 0 240 -80 0 -80 0 0 -160 0 -160 -80 0 -80 0 0 80 0 80 -80 0 -80
0 0 80 0 80 -160 0 -160 0 0 -160z m320 -880 l0 -80 80 0 80 0 0 80 0 80 80 0
80 0 0 -80 0 -80 -80 0 -80 0 0 -80 0 -80 -80 0 -80 0 0 -80 0 -80 160 0 160
0 0 -80 0 -80 -80 0 -80 0 0 -80 0 -80 -80 0 -80 0 0 -160 0 -160 80 0 80 0 0
-160 0 -160 -160 0 -160 0 0 80 0 80 80 0 80 0 0 80 0 80 -80 0 -80 0 0 160 0
160 -80 0 -80 0 0 80 0 80 80 0 80 0 0 -80 0 -80 80 0 80 0 0 160 0 160 -160
0 -160 0 0 80 0 80 80 0 80 0 0 160 0 160 80 0 80 0 0 -80z m-960 -480 l0 -80
-80 0 -80 0 0 80 0 80 80 0 80 0 0 -80z m480 0 l0 -80 -80 0 -80 0 0 -80 0
-80 80 0 80 0 0 -80 0 -80 -80 0 -80 0 0 80 0 80 -80 0 -80 0 0 -80 0 -80
-240 0 -240 0 0 80 0 80 240 0 240 0 0 80 0 80 80 0 80 0 0 80 0 80 80 0 80 0
0 -80z m800 -1280 l0 -80 -240 0 -240 0 0 80 0 80 240 0 240 0 0 -80z m160
-320 l0 -80 -80 0 -80 0 0 80 0 80 80 0 80 0 0 -80z"/>
<path d="M2400 2960 l0 -560 560 0 560 0 0 560 0 560 -560 0 -560 0 0 -560z
m960 0 l0 -400 -400 0 -400 0 0 400 0 400 400 0 400 0 0 -400z"/>
<path d="M2720 2960 l0 -240 240 0 240 0 0 240 0 240 -240 0 -240 0 0 -240z"/>
<path d="M2400 2160 l0 -80 80 0 80 0 0 80 0 80 -80 0 -80 0 0 -80z"/>
<path d="M160 720 l0 -560 560 0 560 0 0 560 0 560 -560 0 -560 0 0 -560z
m960 0 l0 -400 -400 0 -400 0 0 400 0 400 400 0 400 0 0 -400z"/>
<path d="M480 720 l0 -240 240 0 240 0 0 240 0 240 -240 0 -240 0 0 -240z"/>
<path d="M3360 400 l0 -80 80 0 80 0 0 80 0 80 -80 0 -80 0 0 -80z"/>
</g>
</svg>
